<svg width="22" height="22" viewBox="0 0 22 22" fill="none" xmlns="http://www.w3.org/2000/svg">
<path d="M11 11C9.53331 11 8.27776 10.4778 7.23331 9.43334C6.18887 8.3889 5.66665 7.13334 5.66665 5.66668C5.66665 4.20001 6.18887 2.94445 7.23331 1.90001C8.27776 0.855566 9.53331 0.333344 11 0.333344C12.4666 0.333344 13.7222 0.855566 14.7666 1.90001C15.8111 2.94445 16.3333 4.20001 16.3333 5.66668C16.3333 7.13334 15.8111 8.3889 14.7666 9.43334C13.7222 10.4778 12.4666 11 11 11ZM0.333313 21.6667V17.9333C0.333313 17.1778 0.527757 16.4833 0.916646 15.85C1.30554 15.2167 1.8222 14.7333 2.46665 14.4C3.84442 13.7111 5.24442 13.1945 6.66665 12.85C8.08887 12.5056 9.53331 12.3333 11 12.3333C12.4666 12.3333 13.9111 12.5056 15.3333 12.85C16.7555 13.1945 18.1555 13.7111 19.5333 14.4C20.1778 14.7333 20.6944 15.2167 21.0833 15.85C21.4722 16.4833 21.6666 17.1778 21.6666 17.9333V21.6667H0.333313ZM2.99998 19H19V17.9333C19 17.6889 18.9389 17.4667 18.8166 17.2667C18.6944 17.0667 18.5333 16.9111 18.3333 16.8C17.1333 16.2 15.9222 15.75 14.7 15.45C13.4778 15.15 12.2444 15 11 15C9.75553 15 8.5222 15.15 7.29998 15.45C6.07776 15.75 4.86665 16.2 3.66665 16.8C3.46665 16.9111 3.30554 17.0667 3.18331 17.2667C3.06109 17.4667 2.99998 17.6889 2.99998 17.9333V19ZM11 8.33334C11.7333 8.33334 12.3611 8.07223 12.8833 7.55001C13.4055 7.02779 13.6666 6.40001 13.6666 5.66668C13.6666 4.93334 13.4055 4.30557 12.8833 3.78334C12.3611 3.26112 11.7333 3.00001 11 3.00001C10.2666 3.00001 9.63887 3.26112 9.11665 3.78334C8.59442 4.30557 8.33331 4.93334 8.33331 5.66668C8.33331 6.40001 8.59442 7.02779 9.11665 7.55001C9.63887 8.07223 10.2666 8.33334 11 8.33334Z" fill="black"/>
</svg>
