<svg width="28" height="24" viewBox="0 0 28 24" fill="none" xmlns="http://www.w3.org/2000/svg">
<path d="M27.096 5.90801C26.9734 5.73077 26.8096 5.5859 26.6187 5.48582C26.4278 5.38573 26.2155 5.33341 26 5.33334H7.77735L6.23869 1.64001C6.03694 1.15363 5.69531 0.738124 5.25712 0.446154C4.81893 0.154184 4.30391 -0.00109472 3.77735 5.80965e-06H0.666687V2.66667H3.77735L10.1027 17.8467C10.204 18.0895 10.3749 18.297 10.5939 18.4429C10.8129 18.5888 11.0702 18.6667 11.3334 18.6667H22C22.556 18.6667 23.0534 18.3213 23.2494 17.8027L27.2494 7.13601C27.325 6.93417 27.3505 6.71701 27.3238 6.50314C27.2971 6.28927 27.2189 6.08506 27.096 5.90801ZM21.076 16H12.2227L8.88935 8.00001H24.076L21.076 16Z" fill="black"/>
<path d="M12 24C13.1046 24 14 23.1046 14 22C14 20.8954 13.1046 20 12 20C10.8955 20 10 20.8954 10 22C10 23.1046 10.8955 24 12 24Z" fill="black"/>
<path d="M21.3334 24C22.4379 24 23.3334 23.1046 23.3334 22C23.3334 20.8954 22.4379 20 21.3334 20C20.2288 20 19.3334 20.8954 19.3334 22C19.3334 23.1046 20.2288 24 21.3334 24Z" fill="black"/>
</svg>
