<svg width="32" height="32" viewBox="0 0 32 32" fill="none" xmlns="http://www.w3.org/2000/svg">
<g clip-path="url(#clip0_107_32)">
<path d="M11.8491 28.4445C12.9537 28.4445 13.8491 27.549 13.8491 26.4445C13.8491 25.3399 12.9537 24.4445 11.8491 24.4445C10.7446 24.4445 9.84912 25.3399 9.84912 26.4445C9.84912 27.549 10.7446 28.4445 11.8491 28.4445Z" fill="#07140A"/>
<path d="M24 28.4445C25.1046 28.4445 26 27.549 26 26.4445C26 25.3399 25.1046 24.4445 24 24.4445C22.8954 24.4445 22 25.3399 22 26.4445C22 27.549 22.8954 28.4445 24 28.4445Z" fill="#07140A"/>
<path d="M29.4042 4.77331C29.3215 4.67135 29.2172 4.58897 29.0989 4.5321C28.9805 4.47524 28.8511 4.44529 28.7198 4.44443H10.2131L10.7909 6.2222H27.5553L25.182 16.8889H11.8487L7.78644 4.02665C7.7425 3.89017 7.6662 3.76634 7.56404 3.66573C7.46189 3.56512 7.33691 3.49072 7.19977 3.44887L3.55533 2.32887C3.44327 2.29443 3.32552 2.28241 3.20881 2.29348C3.0921 2.30455 2.97872 2.3385 2.87513 2.39339C2.66592 2.50424 2.50932 2.69366 2.43977 2.91998C2.37023 3.1463 2.39343 3.39098 2.50429 3.60018C2.61514 3.80939 2.80457 3.96599 3.03088 4.03554L6.222 5.01331L10.302 17.9022L8.84422 19.0933L8.72866 19.2089C8.36807 19.6244 8.16368 20.1527 8.1507 20.7027C8.13772 21.2528 8.31696 21.7901 8.65755 22.2222C8.89983 22.5168 9.20769 22.7507 9.55652 22.905C9.90535 23.0594 10.2855 23.1299 10.6664 23.1111H25.502C25.7377 23.1111 25.9638 23.0174 26.1305 22.8507C26.2972 22.684 26.3909 22.458 26.3909 22.2222C26.3909 21.9865 26.2972 21.7604 26.1305 21.5937C25.9638 21.427 25.7377 21.3333 25.502 21.3333H10.5242C10.4219 21.3298 10.3221 21.3 10.2347 21.2467C10.1472 21.1934 10.075 21.1185 10.0249 21.0291C9.97488 20.9397 9.94873 20.839 9.949 20.7366C9.94926 20.6341 9.97593 20.5335 10.0264 20.4444L12.1687 18.6666H25.8931C26.0986 18.6717 26.2995 18.6053 26.4615 18.4789C26.6236 18.3525 26.7368 18.1738 26.782 17.9733L29.5998 5.52887C29.6268 5.39635 29.6232 5.25941 29.5894 5.12848C29.5555 4.99755 29.4921 4.87608 29.4042 4.77331Z" fill="#07140A"/>
</g>
<defs>
<clipPath id="clip0_107_32">
<rect width="32" height="32" fill="white"/>
</clipPath>
</defs>
</svg>
