<svg width="17" height="20" viewBox="0 0 17 20" fill="none" xmlns="http://www.w3.org/2000/svg">
<path d="M14.9021 17.3362C14.9021 17.7958 14.7195 18.2366 14.3945 18.5616C14.0695 18.8866 13.6287 19.0692 13.1691 19.0693L2.13821 19.0693C1.67859 19.0692 1.23782 18.8866 0.912817 18.5616C0.587818 18.2366 0.405206 17.7958 0.405136 17.3362L0.405137 6.30534C0.413035 5.85092 0.599097 5.41778 0.923253 5.09921C1.24741 4.78064 1.68372 4.60213 2.13821 4.60213C2.5927 4.60213 3.02901 4.78064 3.35316 5.09921C3.67732 5.41778 3.86338 5.85092 3.87128 6.30534L3.97668 13.0464L15.6204 1.40273C15.9454 1.07767 16.3863 0.895052 16.846 0.895052C17.3057 0.895052 17.7466 1.07767 18.0717 1.40273C18.3967 1.7278 18.5794 2.16868 18.5794 2.62838C18.5794 3.08809 18.3967 3.52897 18.0717 3.85404L6.42799 15.4977L13.1691 15.6031C13.6287 15.6032 14.0695 15.7858 14.3945 16.1108C14.7195 16.4358 14.9021 16.8766 14.9021 17.3362Z" fill="#8CE8A0"/>
</svg>
