<svg width="32" height="32" viewBox="0 0 32 32" fill="none" xmlns="http://www.w3.org/2000/svg">
<path d="M22.25 5.25C19.625 5.25 17.3425 6.43375 16 8.4175C14.6575 6.43375 12.375 5.25 9.75 5.25C7.76159 5.25232 5.85528 6.04324 4.44926 7.44926C3.04324 8.85528 2.25232 10.7616 2.25 12.75C2.25 16.4 4.525 20.1987 9.0125 24.0387C11.0688 25.7909 13.29 27.3398 15.645 28.6637C15.7541 28.7224 15.8761 28.7531 16 28.7531C16.1239 28.7531 16.2459 28.7224 16.355 28.6637C18.71 27.3398 20.9312 25.7909 22.9875 24.0387C27.475 20.1987 29.75 16.4 29.75 12.75C29.7477 10.7616 28.9568 8.85528 27.5507 7.44926C26.1447 6.04324 24.2384 5.25232 22.25 5.25ZM16 27.1388C13.9487 25.955 3.75 19.715 3.75 12.75C3.75165 11.1592 4.38433 9.63405 5.50919 8.50919C6.63405 7.38433 8.15921 6.75165 9.75 6.75C12.285 6.75 14.4137 8.10375 15.3062 10.2837C15.3628 10.4213 15.4589 10.539 15.5824 10.6218C15.7059 10.7046 15.8513 10.7488 16 10.7488C16.1487 10.7488 16.2941 10.7046 16.4176 10.6218C16.5411 10.539 16.6372 10.4213 16.6938 10.2837C17.5863 8.10375 19.715 6.75 22.25 6.75C23.8408 6.75165 25.366 7.38433 26.4908 8.50919C27.6157 9.63405 28.2483 11.1592 28.25 12.75C28.25 19.715 18.0513 25.955 16 27.1388Z" fill="#07140A"/>
</svg>
