<svg width="30" height="30" viewBox="0 0 30 30" fill="none" xmlns="http://www.w3.org/2000/svg">
<path d="M27.7632 26.6123L19.8946 18.6668C21.3612 16.9039 22.2451 14.6359 22.2451 12.1595C22.2451 6.54859 17.713 2 12.1226 2C6.53207 2 2 6.54859 2 12.1595C2 17.7703 6.53207 22.3189 12.1226 22.3189C14.6625 22.3189 16.9826 21.3777 18.7601 19.8262L26.6176 27.7619C26.9339 28.0793 27.4469 28.0793 27.7631 27.7619C28.079 27.4446 28.079 26.9301 27.7631 26.6123H27.7632ZM12.1226 20.7068C7.41921 20.7068 3.60625 16.8799 3.60625 12.1595C3.60625 7.43897 7.41921 3.6121 12.1226 3.6121C16.8259 3.6121 20.6389 7.43897 20.6389 12.1595C20.6389 16.8799 16.8259 20.7068 12.1226 20.7068Z" fill="#07140A"/>
</svg>
