<svg width="20" height="20" viewBox="0 0 20 20" fill="none" xmlns="http://www.w3.org/2000/svg">
<path d="M4.51603 12.323L3.02603 18.775C2.97989 18.9704 2.99374 19.1751 3.06577 19.3625C3.1378 19.5499 3.26467 19.7112 3.4298 19.8253C3.59492 19.9395 3.79064 20.0012 3.99138 20.0024C4.19212 20.0036 4.38855 19.9442 4.55503 19.832L10 16.202L15.445 19.832C15.6154 19.9451 15.8162 20.0033 16.0207 19.9988C16.2251 19.9944 16.4232 19.9274 16.5884 19.8069C16.7536 19.6865 16.878 19.5183 16.9448 19.3251C17.0116 19.1318 17.0176 18.9228 16.962 18.726L15.133 12.326L19.669 8.244C19.8143 8.11319 19.9181 7.94266 19.9674 7.75351C20.0168 7.56436 20.0097 7.36488 19.9469 7.17974C19.8841 6.9946 19.7685 6.83193 19.6142 6.71183C19.46 6.59173 19.2739 6.51947 19.079 6.504L13.378 6.05L10.911 0.589002C10.8324 0.413158 10.7045 0.263838 10.5428 0.159062C10.3812 0.0542872 10.1927 -0.00146484 10 -0.00146484C9.80739 -0.00146484 9.61887 0.0542872 9.45722 0.159062C9.29556 0.263838 9.16769 0.413158 9.08903 0.589002L6.62203 6.05L0.921026 6.503C0.729482 6.51818 0.546364 6.58821 0.393581 6.70473C0.240798 6.82125 0.124819 6.97932 0.0595194 7.16003C-0.00578038 7.34074 -0.0176359 7.53644 0.0253712 7.72371C0.0683783 7.91098 0.164427 8.08189 0.302026 8.216L4.51603 12.323ZM7.36903 7.997C7.54752 7.98294 7.71895 7.92112 7.86533 7.81802C8.01171 7.71491 8.12766 7.57433 8.20103 7.411L10 3.43L11.799 7.411C11.8724 7.57433 11.9883 7.71491 12.1347 7.81802C12.2811 7.92112 12.4525 7.98294 12.631 7.997L16.603 8.312L13.332 11.256C13.048 11.512 12.935 11.906 13.039 12.274L14.292 16.659L10.556 14.168C10.392 14.0579 10.199 13.9992 10.0015 13.9992C9.80403 13.9992 9.61101 14.0579 9.44703 14.168L5.54303 16.771L6.59303 12.225C6.63153 12.0578 6.62636 11.8835 6.57802 11.7189C6.52969 11.5543 6.43981 11.4048 6.31703 11.285L3.27903 8.323L7.36903 7.997Z" fill="black"/>
</svg>
