<svg width="20" height="20" viewBox="0 0 20 20" fill="none" xmlns="http://www.w3.org/2000/svg">
<path d="M10 14C12.206 14 14 12.206 14 10C14 7.794 12.206 6 10 6C7.794 6 6 7.794 6 10C6 12.206 7.794 14 10 14ZM10 8C11.084 8 12 8.916 12 10C12 11.084 11.084 12 10 12C8.916 12 8 11.084 8 10C8 8.916 8.916 8 10 8Z" fill="black"/>
<path d="M0.844978 14.136L1.84498 15.866C2.37598 16.783 3.65398 17.127 4.57498 16.596L5.10398 16.29C5.68252 16.7451 6.32039 17.1192 6.99998 17.402V18C6.99998 19.103 7.89698 20 8.99998 20H11C12.103 20 13 19.103 13 18V17.402C13.6793 17.1192 14.3172 16.7454 14.896 16.291L15.425 16.597C16.348 17.127 17.623 16.785 18.156 15.866L19.155 14.137C19.42 13.6777 19.4919 13.132 19.3548 12.6197C19.2177 12.1075 18.883 11.6706 18.424 11.405L17.919 11.113C18.0263 10.3756 18.0263 9.62645 17.919 8.889L18.424 8.597C18.8827 8.33123 19.2174 7.89433 19.3544 7.38216C19.4914 6.86998 19.4197 6.32436 19.155 5.865L18.156 4.136C17.625 3.216 16.348 2.871 15.425 3.404L14.896 3.71C14.3174 3.25491 13.6796 2.8808 13 2.598V2C13 0.897 12.103 0 11 0H8.99998C7.89698 0 6.99998 0.897 6.99998 2V2.598C6.32062 2.88084 5.6828 3.25459 5.10398 3.709L4.57498 3.403C3.65098 2.872 2.37498 3.216 1.84398 4.135L0.844978 5.864C0.57996 6.3233 0.508089 6.86901 0.645153 7.38126C0.782216 7.89352 1.117 8.33042 1.57598 8.596L2.08098 8.888C1.97321 9.62508 1.97321 10.3739 2.08098 11.111L1.57598 11.403C1.11714 11.669 0.782506 12.106 0.645471 12.6184C0.508435 13.1307 0.580182 13.6765 0.844978 14.136ZM4.17098 11.378C4.05806 10.9273 4.00064 10.4646 3.99998 10C3.99998 9.538 4.05798 9.074 4.16998 8.622C4.22272 8.41133 4.20537 8.18921 4.12056 7.98928C4.03576 7.78935 3.88811 7.6225 3.69998 7.514L2.57698 6.864L3.57498 5.135L4.71998 5.797C4.9067 5.90505 5.12344 5.94962 5.33765 5.92401C5.55185 5.89841 5.75198 5.80401 5.90798 5.655C6.5845 5.01156 7.40031 4.53281 8.29198 4.256C8.4968 4.19347 8.67614 4.06683 8.80359 3.89473C8.93105 3.72263 8.99989 3.51416 8.99998 3.3V2H11V3.3C11.0001 3.51416 11.0689 3.72263 11.1964 3.89473C11.3238 4.06683 11.5032 4.19347 11.708 4.256C12.5995 4.53321 13.4152 5.0119 14.092 5.655C14.2481 5.80372 14.4482 5.89792 14.6624 5.92352C14.8765 5.94911 15.0932 5.90473 15.28 5.797L16.424 5.136L17.424 6.865L16.3 7.514C16.112 7.62262 15.9644 7.78948 15.8796 7.98938C15.7948 8.18927 15.7774 8.41133 15.83 8.622C15.942 9.074 16 9.538 16 10C16 10.461 15.942 10.925 15.829 11.378C15.7765 11.5888 15.7941 11.8109 15.8791 12.0108C15.964 12.2107 16.1118 12.3775 16.3 12.486L17.423 13.135L16.425 14.864L15.28 14.203C15.0933 14.0948 14.8765 14.0501 14.6623 14.0757C14.448 14.1013 14.2479 14.1958 14.092 14.345C13.4155 14.9884 12.5996 15.4672 11.708 15.744C11.5032 15.8065 11.3238 15.9332 11.1964 16.1053C11.0689 16.2774 11.0001 16.4858 11 16.7L11.002 18H8.99998V16.7C8.99989 16.4858 8.93105 16.2774 8.80359 16.1053C8.67614 15.9332 8.4968 15.8065 8.29198 15.744C7.40048 15.4668 6.58476 14.9881 5.90798 14.345C5.75228 14.1954 5.55203 14.1007 5.33763 14.0753C5.12322 14.0498 4.90636 14.095 4.71998 14.204L3.57598 14.866L2.57598 13.137L3.69998 12.486C3.88817 12.3775 4.03593 12.2107 4.12091 12.0108C4.20588 11.8109 4.22346 11.5888 4.17098 11.378Z" fill="black"/>
</svg>
