<svg width="19" height="19" viewBox="0 0 19 19" fill="none" xmlns="http://www.w3.org/2000/svg">
<path d="M18.5 9.29C18.5 13.44 16.29 18.5 9.63 18.5C4.62461 18.5332 0.53852 14.5053 0.5 9.5C0.53852 4.49461 4.62461 0.4667 9.63 0.49996C11.7007 0.50764 13.7085 1.21213 15.33 2.49996C15.442 2.59149 15.5109 2.72557 15.52 2.86996C15.5206 3.01605 15.463 3.15637 15.36 3.25996C14.709 3.85516 14.0882 4.48261 13.5 5.13996C13.3289 5.32826 13.0422 5.35432 12.84 5.19996C11.9161 4.51624 10.7888 4.16394 9.64 4.19996C6.68528 4.19996 4.29 6.59524 4.29 9.55C4.29 12.5047 6.68528 14.9 9.64 14.9C12.64 14.9 13.91 13.62 14.57 11.35H10C9.7239 11.35 9.5 11.1261 9.5 10.85V8.2C9.5 7.9238 9.7239 7.7 10 7.7H18C18.2302 7.6985 18.4244 7.8711 18.45 8.1C18.4871 8.4955 18.5038 8.8927 18.5 9.29Z" fill="black"/>
</svg>
